<svg width="24" height="24" viewBox="0 0 24 24" fill="none" xmlns="http://www.w3.org/2000/svg">
<path d="M17.9063 12.4136C17.9007 12.6073 17.862 12.7843 17.79 12.9448C17.7181 13.1053 17.6074 13.2603 17.458 13.4097L9.14063 21.4614C8.90267 21.6994 8.60938 21.8184 8.26074 21.8184C8.02832 21.8184 7.81803 21.763 7.62988 21.6523C7.4362 21.5417 7.28402 21.3923 7.17334 21.2041C7.05713 21.0159 6.99902 20.8057 6.99902 20.5732C6.99902 20.2301 7.12907 19.9285 7.38916 19.6685L14.9097 12.4219L7.38916 5.16699C7.12907 4.90137 6.99902 4.59977 6.99902 4.26221C6.99902 4.02425 7.05713 3.8112 7.17334 3.62305C7.28402 3.4349 7.4362 3.28548 7.62988 3.1748C7.81804 3.05859 8.02832 3.00049 8.26074 3.00049C8.60938 3.00049 8.90267 3.12223 9.14063 3.36572L17.458 11.4175C17.613 11.5669 17.7264 11.7218 17.7983 11.8823C17.8703 12.0483 17.9063 12.2254 17.9063 12.4136Z" fill="white"/>
</svg>
